<?xml version="1.0" encoding="UTF-8"?>
<svg id="Layer_1" xmlns="http://www.w3.org/2000/svg" version="1.1" viewBox="0 0 370.04 380.11">
  <!-- Generator: Adobe Illustrator 29.8.3, SVG Export Plug-In . SVG Version: 2.1.1 Build 3)  -->
  <defs>
    <style>
      .st0 {
        fill: #fff;
      }
    </style>
  </defs>
  <path class="st0" d="M184.66,12.21c-46.19.08-89.6,18.65-122.19,52.32C29.86,98.19,11.95,142.9,12.03,190.42c.08,47.54,18.16,92.16,50.87,125.7,32.72,33.55,76.19,51.96,122.37,51.87,95.37-.15,172.81-80.1,172.64-178.21-.17-98.08-77.9-177.75-173.26-177.56ZM185.26,354.46c-42.68.08-82.81-16.94-113.06-47.94-30.24-30.98-46.93-72.2-47-116.12-.07-43.9,16.48-85.22,46.59-116.31,30.14-31.09,70.23-48.27,112.89-48.35,88.12-.16,159.92,73.44,160.08,164.07.16,90.63-71.39,164.5-159.5,164.65Z"/>
  <path class="st0" d="M254.3,200.03l-3.74-4.56c6.1,12.15,15.74,68.1-64.64,48.52-1.06-.25,0,1.38,0,5.9,93.78,15.28,68.38-49.86,68.38-49.86Z"/>
  <path class="st0" d="M248.69,193.19l1.87,2.28c-.73-1.45-1.4-2.28-1.87-2.28Z"/>
  <path class="st0" d="M184.85,31.03c-82.92,0-150.14,71.41-150.14,159.5s67.22,159.5,150.14,159.5,150.14-71.41,150.14-159.5S267.77,31.03,184.85,31.03ZM184.7,42.67c80.1,0,145.12,65.35,145.95,146.27l-44.8.06c1.68-20.48-5.48-62.67-6.73-67.54-1.59-6.16-2.87-12.02-2.87-15.89-.96-1.32-2.86-1.32-3.8-.32-2.2,5.85-4.03,7.05-16.67,7.07l-23.7-1.03c-16.11.06-24.95-.27-26.55-13.92l-.64-5.19c-1.89-2.29-6.64-1.93-7.9.33.64,10.73.99,21.77,1,34.44.04,19.17-.24,37.05-.85,46.48.94,2.27,6.64,2.58,7.88-.03l1.56-14.29c2.18-20.15,4.07-21.14,30.6-21.17l18.65,1c10.12-.02,10.18,2.18,12.26,3.99,8.82,7.62,10.29,26.78,9.04,46.07l-189.85.26-.14-.33c-3.88-9.27-.44-16.17,3.2-23.47,2.55-5.06,5.19-10.33,5.4-16.6.77-23.7,7.18-37.94,17.13-38.13.15,0,.29.08.45.08,3.96,5.11,7.86,12.89,11,19.39,4.54,9.4,6.46,13.19,8.74,12.5,1.19-.35,2.13-1.57,2.13-8.62,0-.46-.05-1.13-.06-1.66,3.91,8.78,6.77,19.68,7.57,32.26l.18,2.85,7.98-10.03-18.72-63.13-2.13.47c1.19,11.55,1.98,20.68,2.46,27.91-5.42-8.35-11.85-13.3-18-13.97-2.26-2.77-4.6-4.97-7-5.43-2.08-.36-4.02.31-5.8,2.05-30.24,29.42-31.01,71.4-28.9,83.88l-34.03.05c.62-81.11,65.73-146.66,145.96-146.66ZM284.82,192.55c-1.03,18.11-10.59,99.95-98.83,90.83-.41-.04-.59,1.44-.66,3.55-48.64-.39-66.23-50.51-66.6-94.16l166.09-.22ZM184.7,338.34c-79.84,0-144.69-64.92-145.94-145.47l34.18-.04c3.47,51.57,46.17,104.79,112.5,105.06v.18c97.19-6.98,102.75-81.49,100.03-105.52l45.19-.06c-1.05,80.73-65.98,145.85-145.95,145.85Z"/>
</svg>